<?xml version="1.0" encoding="UTF-8" standalone="no"?>
<!-- Created with Inkscape (http://www.inkscape.org/) -->

<svg
   xmlns:dc="http://purl.org/dc/elements/1.1/"
   xmlns:cc="http://creativecommons.org/ns#"
   xmlns:rdf="http://www.w3.org/1999/02/22-rdf-syntax-ns#"
   xmlns:svg="http://www.w3.org/2000/svg"
   xmlns="http://www.w3.org/2000/svg"
   xmlns:sodipodi="http://sodipodi.sourceforge.net/DTD/sodipodi-0.dtd"
   xmlns:inkscape="http://www.inkscape.org/namespaces/inkscape"
   width="744.09448819"
   height="1052.3622047"
   id="svg2"
   version="1.1"
   inkscape:version="0.48.4 r9939"
   sodipodi:docname="Mons 4.svg">
  <defs
     id="defs4" />
  <sodipodi:namedview
     id="base"
     pagecolor="#ffffff"
     bordercolor="#666666"
     borderopacity="1.0"
     inkscape:pageopacity="0.0"
     inkscape:pageshadow="2"
     inkscape:zoom="1"
     inkscape:cx="387.78545"
     inkscape:cy="654.0454"
     inkscape:document-units="px"
     inkscape:current-layer="layer6"
     showgrid="false"
     inkscape:window-width="1280"
     inkscape:window-height="898"
     inkscape:window-x="-8"
     inkscape:window-y="-8"
     inkscape:window-maximized="1" />
  <metadata
     id="metadata7">
    <rdf:RDF>
      <cc:Work
         rdf:about="">
        <dc:format>image/svg+xml</dc:format>
        <dc:type
           rdf:resource="http://purl.org/dc/dcmitype/StillImage" />
        <dc:title></dc:title>
      </cc:Work>
    </rdf:RDF>
  </metadata>
  <g
     inkscape:groupmode="layer"
     id="layer8"
     inkscape:label="Layer#6" />
  <g
     inkscape:groupmode="layer"
     id="layer7"
     inkscape:label="Layer#5" />
  <g
     inkscape:groupmode="layer"
     id="layer5"
     inkscape:label="Layer#3">
    <path
       sodipodi:type="arc"
       style="fill:#483e37;fill-opacity:1;fill-rule:nonzero;stroke:none"
       id="path4173"
       sodipodi:cx="208.5"
       sodipodi:cy="258.86218"
       sodipodi:rx="74.5"
       sodipodi:ry="74.5"
       d="m 283,258.86218 a 74.5,74.5 0 1 1 -149,0 74.5,74.5 0 1 1 149,0 z"
       transform="translate(155,11)" />
    <path
       inkscape:connector-curvature="0"
       id="path4185"
       d="m 473.07131,163.46213 c -230.53668,390.84467 -24.03501,249.96693 0,0 z"
       style="fill:#483e37;fill-opacity:1;stroke:none" />
    <path
       transform="matrix(2.3959733,0,0,1.8053691,-141.0604,-91.47961)"
       d="m 283,258.86218 a 74.5,74.5 0 1 1 -149,0 74.5,74.5 0 1 1 149,0 z"
       sodipodi:ry="74.5"
       sodipodi:rx="74.5"
       sodipodi:cy="258.86218"
       sodipodi:cx="208.5"
       id="path4187"
       style="fill:#483e37;fill-opacity:1;fill-rule:nonzero;stroke:none"
       sodipodi:type="arc" />
    <path
       style="fill:#483e37;fill-opacity:1;stroke:none"
       d="m 259.05726,163.46213 c 230.53668,390.84467 24.03501,249.96693 0,0 z"
       id="path4189"
       inkscape:connector-curvature="0" />
  </g>
  <g
     inkscape:groupmode="layer"
     id="layer4"
     inkscape:label="Layer#2">
    <path
       sodipodi:type="arc"
       style="fill:#164450;fill-opacity:1;fill-rule:nonzero;stroke:none"
       id="path4159"
       sodipodi:cx="234.5"
       sodipodi:cy="301.86218"
       sodipodi:rx="50.5"
       sodipodi:ry="50.5"
       d="m 285,301.86218 a 50.5,50.5 0 1 1 -101,0 50.5,50.5 0 1 1 101,0 z"
       transform="matrix(1.3181818,0,0,1.3181818,52.54545,-45.978876)" />
  </g>
  <g
     inkscape:label="Layer 1"
     inkscape:groupmode="layer"
     id="layer1">
    <path
       sodipodi:type="arc"
       style="fill:#00a693;fill-opacity:0;fill-rule:nonzero;stroke:none"
       id="path3007"
       sodipodi:cx="355"
       sodipodi:cy="504.36218"
       sodipodi:rx="153"
       sodipodi:ry="153"
       d="m 508,504.36218 a 153,153 0 1 1 -306,0 153,153 0 1 1 306,0 z" />
    <path
       sodipodi:type="arc"
       style="fill:#917c6f;fill-opacity:1;fill-rule:nonzero;stroke:none"
       id="path3779"
       sodipodi:cx="304"
       sodipodi:cy="567.36218"
       sodipodi:rx="178"
       sodipodi:ry="178"
       d="m 482,567.36218 a 178,178 0 1 1 -356,0 178,178 0 1 1 356,0 z"
       transform="translate(54,-135)" />
    <path
       style="fill:#00a627;fill-opacity:0;fill-rule:nonzero;stroke:none"
       d="m 472,459.53851 c 0,36.05403 -46.70915,88.21837 -104.32778,88.21837 C 310.05358,547.75688 261,492.06382 261,456.00978 c 0,-36.05402 51.39803,14.11493 109.01667,14.11493 C 427.6353,470.12471 472,423.48449 472,459.53851 z"
       id="path3852"
       inkscape:connector-curvature="0"
       sodipodi:nodetypes="sssss" />
    <path
       sodipodi:nodetypes="sssss"
       inkscape:connector-curvature="0"
       id="path3855"
       d="m 450,469.73349 c 0,25.59577 -39.84666,62.62869 -89,62.62869 -49.15334,0 -91,-39.53806 -91,-65.13384 0,-25.59575 43.84666,10.0206 93,10.0206 49.15334,0 87,-33.1112 87,-7.51545 z"
       style="fill:#483e37;fill-opacity:1;fill-rule:nonzero;stroke:none" />
    <path
       style="fill:#ffffff;fill-opacity:1;fill-rule:nonzero;stroke:none"
       d="m 450,466.52027 c 0,20.77862 -39.84666,50.84191 -89,50.84191 -49.15334,0 -91,-32.09696 -91,-52.87559 0,-20.77861 43.84666,8.13471 93,8.13471 49.15334,0 87,-26.87964 87,-6.10103 z"
       id="path3857"
       inkscape:connector-curvature="0"
       sodipodi:nodetypes="sssss" />
    <path
       transform="matrix(1.2844037,0,0,1.2844037,116.75229,-62.31402)"
       d="m 247,330.36218 a 54,54 0 1 1 -108,0 54,54 0 1 1 108,0 z"
       sodipodi:ry="54"
       sodipodi:rx="54"
       sodipodi:cy="330.36218"
       sodipodi:cx="193"
       id="path3861"
       style="fill:#6c5d53;fill-opacity:1;fill-rule:nonzero;stroke:none"
       sodipodi:type="arc" />
    <path
       transform="matrix(1.2844037,0,0,1.2844037,-24.81651,-101.13053)"
       d="m 343,360.36218 a 40,40 0 1 1 -80,0 40,40 0 1 1 80,0 z"
       sodipodi:ry="40"
       sodipodi:rx="40"
       sodipodi:cy="360.36218"
       sodipodi:cx="303"
       id="path3863"
       style="fill:#ffffff;fill-opacity:1;fill-rule:nonzero;stroke:none"
       sodipodi:type="arc" />
    <path
       transform="matrix(1.2844037,0,0,1.2844037,194.81651,-417.09383)"
       d="m 152,606.86218 a 19.5,19.5 0 1 1 -39,0 19.5,19.5 0 1 1 39,0 z"
       sodipodi:ry="19.5"
       sodipodi:rx="19.5"
       sodipodi:cy="606.86218"
       sodipodi:cx="132.5"
       id="path3865"
       style="fill:#000000;fill-opacity:1;fill-rule:nonzero;stroke:none"
       sodipodi:type="arc" />
    <path
       transform="matrix(0.99898063,0,0,0.99898063,58.53109,214.07784)"
       d="m 323,139.36218 a 9,9 0 1 1 -18,0 9,9 0 1 1 18,0 z"
       sodipodi:ry="9"
       sodipodi:rx="9"
       sodipodi:cy="139.36218"
       sodipodi:cx="314"
       id="path3867"
       style="fill:#ffffff;fill-opacity:1;fill-rule:nonzero;stroke:none"
       sodipodi:type="arc" />
  </g>
  <g
     inkscape:groupmode="layer"
     id="layer3"
     inkscape:label="Layer#1" />
  <g
     inkscape:groupmode="layer"
     id="layer2"
     inkscape:label="Layer" />
  <g
     inkscape:groupmode="layer"
     id="layer6"
     inkscape:label="Skin">
    <g
       id="g4083"
       style="fill:#483e37;fill-opacity:1;opacity:0.6"
       transform="translate(0,2)">
      <path
         d="m 321,559.86218 a 15.5,15.5 0 1 1 -31,0 15.5,15.5 0 1 1 31,0 z"
         sodipodi:ry="15.5"
         sodipodi:rx="15.5"
         sodipodi:cy="559.86218"
         sodipodi:cx="305.5"
         id="path3928"
         style="opacity:0.40000000000000002;fill:#483e37;fill-opacity:1;fill-rule:nonzero;stroke:#000000;stroke-opacity:0.21276597999999999"
         sodipodi:type="arc"
         transform="translate(43,-114)" />
      <path
         d="m 369,591.86218 a 11.5,11.5 0 1 1 -23,0 11.5,11.5 0 1 1 23,0 z"
         sodipodi:ry="11.5"
         sodipodi:rx="11.5"
         sodipodi:cy="591.86218"
         sodipodi:cx="357.5"
         id="path3930"
         style="opacity:0.40000000000000002;fill:#483e37;fill-opacity:1;fill-rule:nonzero;stroke:#000000;stroke-opacity:0.21276597999999999"
         sodipodi:type="arc" />
      <path
         d="m 425,555.86218 a 22.5,22.5 0 1 1 -45,0 22.5,22.5 0 1 1 45,0 z"
         sodipodi:ry="22.5"
         sodipodi:rx="22.5"
         sodipodi:cy="555.86218"
         sodipodi:cx="402.5"
         id="path3932"
         style="opacity:0.40000000000000002;fill:#483e37;fill-opacity:1;fill-rule:nonzero;stroke:#000000;stroke-opacity:0.21276597999999999"
         sodipodi:type="arc" />
      <path
         d="m 350,551.36218 a 6,6 0 1 1 -12,0 6,6 0 1 1 12,0 z"
         sodipodi:ry="6"
         sodipodi:rx="6"
         sodipodi:cy="551.36218"
         sodipodi:cx="344"
         id="path3934"
         style="opacity:0.40000000000000002;fill:#483e37;fill-opacity:1;fill-rule:nonzero;stroke:#000000;stroke-opacity:0.21276597999999999"
         sodipodi:type="arc" />
      <path
         transform="translate(-2,0)"
         d="m 465,560.36218 a 9,9 0 1 1 -18,0 9,9 0 1 1 18,0 z"
         sodipodi:ry="9"
         sodipodi:rx="9"
         sodipodi:cy="560.36218"
         sodipodi:cx="456"
         id="path3936"
         style="opacity:0.40000000000000002;fill:#483e37;fill-opacity:1;fill-rule:nonzero;stroke:#000000;stroke-opacity:0.21276597999999999"
         sodipodi:type="arc" />
      <path
         d="m 265,558.36218 a 8,8 0 1 1 -16,0 8,8 0 1 1 16,0 z"
         sodipodi:ry="8"
         sodipodi:rx="8"
         sodipodi:cy="558.36218"
         sodipodi:cx="257"
         id="path3938"
         style="opacity:0.40000000000000002;fill:#483e37;fill-opacity:1;fill-rule:nonzero;stroke:#000000;stroke-opacity:0.21276597999999999"
         sodipodi:type="arc" />
      <path
         transform="translate(-9,-3)"
         d="m 521,508.36218 a 9,9 0 1 1 -18,0 9,9 0 1 1 18,0 z"
         sodipodi:ry="9"
         sodipodi:rx="9"
         sodipodi:cy="508.36218"
         sodipodi:cx="512"
         id="path3940"
         style="opacity:0.40000000000000002;fill:#483e37;fill-opacity:1;fill-rule:nonzero;stroke:#000000;stroke-opacity:0.21276597999999999"
         sodipodi:type="arc" />
      <path
         d="m 238,526.36218 a 9,9 0 1 1 -18,0 9,9 0 1 1 18,0 z"
         sodipodi:ry="9"
         sodipodi:rx="9"
         sodipodi:cy="526.36218"
         sodipodi:cx="229"
         id="path3942"
         style="opacity:0.40000000000000002;fill:#483e37;fill-opacity:1;fill-rule:nonzero;stroke:#000000;stroke-opacity:0.21276597999999999"
         sodipodi:type="arc" />
      <path
         d="m 530,442.86218 a 8.5,8.5 0 1 1 -17,0 8.5,8.5 0 1 1 17,0 z"
         sodipodi:ry="8.5"
         sodipodi:rx="8.5"
         sodipodi:cy="442.86218"
         sodipodi:cx="521.5"
         id="path3944"
         style="opacity:0.40000000000000002;fill:#483e37;fill-opacity:1;fill-rule:nonzero;stroke:#000000;stroke-opacity:0.21276597999999999"
         sodipodi:type="arc"
         transform="translate(-72,-67)" />
      <path
         d="m 215,459.86218 a 12.5,12.5 0 1 1 -25,0 12.5,12.5 0 1 1 25,0 z"
         sodipodi:ry="12.5"
         sodipodi:rx="12.5"
         sodipodi:cy="459.86218"
         sodipodi:cx="202.5"
         id="path3946"
         style="opacity:0.40000000000000002;fill:#483e37;fill-opacity:1;fill-rule:nonzero;stroke:#000000;stroke-opacity:0.21276597999999999"
         sodipodi:type="arc"
         transform="translate(0,8)" />
      <path
         transform="matrix(-1,0,0,-1,573,966.72436)"
         sodipodi:type="arc"
         style="opacity:0.40000000000000002;fill:#483e37;fill-opacity:1;fill-rule:nonzero;stroke:#000000;stroke-opacity:0.21276597999999999"
         id="path3948"
         sodipodi:cx="305.5"
         sodipodi:cy="559.86218"
         sodipodi:rx="15.5"
         sodipodi:ry="15.5"
         d="m 321,559.86218 a 15.5,15.5 0 1 1 -31,0 15.5,15.5 0 1 1 31,0 z" />
      <path
         transform="matrix(-1,0,0,-1,652,1158.7244)"
         sodipodi:type="arc"
         style="opacity:0.40000000000000002;fill:#483e37;fill-opacity:1;fill-rule:nonzero;stroke:#000000;stroke-opacity:0.21276597999999999"
         id="path3950"
         sodipodi:cx="357.5"
         sodipodi:cy="591.86218"
         sodipodi:rx="11.5"
         sodipodi:ry="11.5"
         d="m 369,591.86218 a 11.5,11.5 0 1 1 -23,0 11.5,11.5 0 1 1 23,0 z" />
      <path
         transform="matrix(-1,0,0,-1,888,904.72437)"
         sodipodi:type="arc"
         style="opacity:0.40000000000000002;fill:#483e37;fill-opacity:1;fill-rule:nonzero;stroke:#000000;stroke-opacity:0.21276597999999999"
         id="path3952"
         sodipodi:cx="402.5"
         sodipodi:cy="555.86218"
         sodipodi:rx="22.5"
         sodipodi:ry="22.5"
         d="m 425,555.86218 a 22.5,22.5 0 1 1 -45,0 22.5,22.5 0 1 1 45,0 z" />
      <path
         transform="matrix(-1,0,0,-1,858,982.72437)"
         sodipodi:type="arc"
         style="opacity:0.40000000000000002;fill:#483e37;fill-opacity:1;fill-rule:nonzero;stroke:#000000;stroke-opacity:0.21276597999999999"
         id="path3954"
         sodipodi:cx="344"
         sodipodi:cy="551.36218"
         sodipodi:rx="6"
         sodipodi:ry="6"
         d="m 350,551.36218 a 6,6 0 1 1 -12,0 6,6 0 1 1 12,0 z" />
      <path
         transform="matrix(-1,0,0,-1,919,975.72437)"
         sodipodi:type="arc"
         style="opacity:0.40000000000000002;fill:#483e37;fill-opacity:1;fill-rule:nonzero;stroke:#000000;stroke-opacity:0.21276597999999999"
         id="path3956"
         sodipodi:cx="456"
         sodipodi:cy="560.36218"
         sodipodi:rx="9"
         sodipodi:ry="9"
         d="m 465,560.36218 a 9,9 0 1 1 -18,0 9,9 0 1 1 18,0 z" />
      <path
         transform="matrix(-1,0,0,-1,508,1002.7244)"
         sodipodi:type="arc"
         style="opacity:0.40000000000000002;fill:#483e37;fill-opacity:1;fill-rule:nonzero;stroke:#000000;stroke-opacity:0.21276597999999999"
         id="path3958"
         sodipodi:cx="257"
         sodipodi:cy="558.36218"
         sodipodi:rx="8"
         sodipodi:ry="8"
         d="m 265,558.36218 a 8,8 0 1 1 -16,0 8,8 0 1 1 16,0 z" />
      <path
         sodipodi:type="arc"
         style="opacity:0.40000000000000002;fill:#483e37;fill-opacity:1;fill-rule:nonzero;stroke:#000000;stroke-opacity:0.21276597999999999"
         id="path3960"
         sodipodi:cx="512"
         sodipodi:cy="508.36218"
         sodipodi:rx="9"
         sodipodi:ry="9"
         d="m 521,508.36218 a 9,9 0 1 1 -18,0 9,9 0 1 1 18,0 z"
         transform="matrix(-1,0,0,-1,853,789.72436)" />
      <path
         transform="matrix(-1,0,0,-1,469,847.72436)"
         sodipodi:type="arc"
         style="opacity:0.40000000000000002;fill:#483e37;fill-opacity:1;fill-rule:nonzero;stroke:#000000;stroke-opacity:0.21276597999999999"
         id="path3962"
         sodipodi:cx="229"
         sodipodi:cy="526.36218"
         sodipodi:rx="9"
         sodipodi:ry="9"
         d="m 238,526.36218 a 9,9 0 1 1 -18,0 9,9 0 1 1 18,0 z" />
      <path
         transform="matrix(-1,0,0,-1,617,891.72436)"
         sodipodi:type="arc"
         style="opacity:0.40000000000000002;fill:#483e37;fill-opacity:1;fill-rule:nonzero;stroke:#000000;stroke-opacity:0.21276597999999999"
         id="path3966"
         sodipodi:cx="202.5"
         sodipodi:cy="459.86218"
         sodipodi:rx="12.5"
         sodipodi:ry="12.5"
         d="m 215,459.86218 a 12.5,12.5 0 1 1 -25,0 12.5,12.5 0 1 1 25,0 z" />
      <path
         d="m 369,591.86218 a 11.5,11.5 0 1 1 -23,0 11.5,11.5 0 1 1 23,0 z"
         sodipodi:ry="11.5"
         sodipodi:rx="11.5"
         sodipodi:cy="591.86218"
         sodipodi:cx="357.5"
         id="path3976"
         style="opacity:0.40000000000000002;fill:#483e37;fill-opacity:1;fill-rule:nonzero;stroke:#000000;stroke-opacity:0.21276597999999999"
         sodipodi:type="arc"
         transform="matrix(-1,0,0,-1,812,905.7244)" />
      <path
         d="m 321,559.86218 a 15.5,15.5 0 1 1 -31,0 15.5,15.5 0 1 1 31,0 z"
         sodipodi:ry="15.5"
         sodipodi:rx="15.5"
         sodipodi:cy="559.86218"
         sodipodi:cx="305.5"
         id="path3980"
         style="opacity:0.40000000000000002;fill:#483e37;fill-opacity:1;fill-rule:nonzero;stroke:#000000;stroke-opacity:0.21276597999999999"
         sodipodi:type="arc"
         transform="matrix(-1,0,0,-1,529,929.72436)" />
      <path
         d="m 265,558.36218 a 8,8 0 1 1 -16,0 8,8 0 1 1 16,0 z"
         sodipodi:ry="8"
         sodipodi:rx="8"
         sodipodi:cy="558.36218"
         sodipodi:cx="257"
         id="path3982"
         style="opacity:0.40000000000000002;fill:#483e37;fill-opacity:1;fill-rule:nonzero;stroke:#000000;stroke-opacity:0.21276597999999999"
         sodipodi:type="arc"
         transform="matrix(-1,0,0,-1,514,921.7244)" />
      <path
         transform="matrix(0.625,0,0,0.625,-14,235.76082)"
         d="m 424,403.86218 a 28,28.5 0 1 1 -56,0 28,28.5 0 1 1 56,0 z"
         sodipodi:ry="28.5"
         sodipodi:rx="28"
         sodipodi:cy="403.86218"
         sodipodi:cx="396"
         id="path3920"
         style="opacity:0.40000000000000002;fill:#483e37;fill-opacity:1;fill-rule:nonzero;stroke:#000000;stroke-opacity:0.21276597999999999"
         sodipodi:type="arc" />
      <path
         sodipodi:type="arc"
         style="opacity:0.40000000000000002;fill:#483e37;fill-opacity:1;fill-rule:nonzero;stroke:#000000;stroke-opacity:0.21276597999999999"
         id="path3922"
         sodipodi:cx="396"
         sodipodi:cy="403.86218"
         sodipodi:rx="28"
         sodipodi:ry="28.5"
         d="m 424,403.86218 a 28,28.5 0 1 1 -56,0 28,28.5 0 1 1 56,0 z"
         transform="matrix(0.33928571,0,0,0.33928571,130.14286,390.00716)" />
      <path
         transform="matrix(0.83928571,0,0,0.83928571,148.14286,126.32607)"
         d="m 424,403.86218 a 28,28.5 0 1 1 -56,0 28,28.5 0 1 1 56,0 z"
         sodipodi:ry="28.5"
         sodipodi:rx="28"
         sodipodi:cy="403.86218"
         sodipodi:cx="396"
         id="path3924"
         style="opacity:0.40000000000000002;fill:#483e37;fill-opacity:1;fill-rule:nonzero;stroke:#000000;stroke-opacity:0.21276597999999999"
         sodipodi:type="arc" />
      <path
         sodipodi:type="arc"
         style="opacity:0.40000000000000002;fill:#483e37;fill-opacity:1;fill-rule:nonzero;stroke:#000000;stroke-opacity:0.21276597999999999"
         id="path3926"
         sodipodi:cx="396"
         sodipodi:cy="403.86218"
         sodipodi:rx="28"
         sodipodi:ry="28.5"
         d="m 424,403.86218 a 28,28.5 0 1 1 -56,0 28,28.5 0 1 1 56,0 z"
         transform="matrix(0.46428571,0,0,0.46428571,284.14286,326.08689)" />
      <path
         sodipodi:type="arc"
         style="opacity:0.40000000000000002;fill:#483e37;fill-opacity:1;fill-rule:nonzero;stroke:#000000;stroke-opacity:0.21276597999999999"
         id="path3968"
         sodipodi:cx="396"
         sodipodi:cy="403.86218"
         sodipodi:rx="28"
         sodipodi:ry="28.5"
         d="m 424,403.86218 a 28,28.5 0 1 1 -56,0 28,28.5 0 1 1 56,0 z"
         transform="matrix(-0.625,0,0,-0.625,457,667.58854)" />
      <path
         transform="matrix(-0.33928571,0,0,-0.33928571,438.85714,570.0565)"
         d="m 424,403.86218 a 28,28.5 0 1 1 -56,0 28,28.5 0 1 1 56,0 z"
         sodipodi:ry="28.5"
         sodipodi:rx="28"
         sodipodi:cy="403.86218"
         sodipodi:cx="396"
         id="path3970"
         style="opacity:0.40000000000000002;fill:#483e37;fill-opacity:1;fill-rule:nonzero;stroke:#000000;stroke-opacity:0.21276597999999999"
         sodipodi:type="arc" />
      <path
         sodipodi:type="arc"
         style="opacity:0.40000000000000002;fill:#483e37;fill-opacity:1;fill-rule:nonzero;stroke:#000000;stroke-width:1.27021742000000000;stroke-opacity:0.21276597999999999"
         id="path3972"
         sodipodi:cx="396"
         sodipodi:cy="403.86218"
         sodipodi:rx="28"
         sodipodi:ry="28.5"
         d="m 424,403.86218 a 28,28.5 0 1 1 -56,0 28,28.5 0 1 1 56,0 z"
         transform="matrix(-0.66071428,0,0,-0.66076924,553.14285,556.05382)" />
      <path
         transform="matrix(-0.46428571,0,0,-0.46428571,680.85714,583.10177)"
         d="m 424,403.86218 a 28,28.5 0 1 1 -56,0 28,28.5 0 1 1 56,0 z"
         sodipodi:ry="28.5"
         sodipodi:rx="28"
         sodipodi:cy="403.86218"
         sodipodi:cx="396"
         id="path3974"
         style="opacity:0.40000000000000002;fill:#483e37;fill-opacity:1;fill-rule:nonzero;stroke:#000000;stroke-opacity:0.21276597999999999"
         sodipodi:type="arc" />
      <path
         transform="matrix(0.46428571,0,0,0.46428571,88.14286,141.08689)"
         d="m 424,403.86218 a 28,28.5 0 1 1 -56,0 28,28.5 0 1 1 56,0 z"
         sodipodi:ry="28.5"
         sodipodi:rx="28"
         sodipodi:cy="403.86218"
         sodipodi:cx="396"
         id="path3978"
         style="opacity:0.40000000000000002;fill:#483e37;fill-opacity:1;fill-rule:nonzero;stroke:#000000;stroke-opacity:0.21276597999999999"
         sodipodi:type="arc" />
      <path
         sodipodi:type="arc"
         style="opacity:0.40000000000000002;fill:#483e37;fill-opacity:1;fill-rule:nonzero;stroke:#000000;stroke-opacity:0.21276597999999999"
         id="path4161"
         sodipodi:cx="396"
         sodipodi:cy="403.86218"
         sodipodi:rx="28"
         sodipodi:ry="28.5"
         d="m 424,403.86218 a 28,28.5 0 1 1 -56,0 28,28.5 0 1 1 56,0 z"
         transform="matrix(-0.46428571,0,0,-0.46428571,562.85714,463.10177)" />
      <path
         transform="matrix(-1,0,0,-1,677,839.7244)"
         sodipodi:type="arc"
         style="opacity:0.40000000000000002;fill:#483e37;fill-opacity:1;fill-rule:nonzero;stroke:#000000;stroke-opacity:0.21276597999999999"
         id="path4167"
         sodipodi:cx="257"
         sodipodi:cy="558.36218"
         sodipodi:rx="8"
         sodipodi:ry="8"
         d="m 265,558.36218 a 8,8 0 1 1 -16,0 8,8 0 1 1 16,0 z" />
      <path
         sodipodi:type="arc"
         style="opacity:0.40000000000000002;fill:#483e37;fill-opacity:1;fill-rule:nonzero;stroke:#000000;stroke-opacity:0.21276597999999999"
         id="path4169"
         sodipodi:cx="344"
         sodipodi:cy="551.36218"
         sodipodi:rx="6"
         sodipodi:ry="6"
         d="m 350,551.36218 a 6,6 0 1 1 -12,0 6,6 0 1 1 12,0 z"
         transform="translate(78,-245)" />
      <path
         sodipodi:type="arc"
         style="opacity:0.40000000000000002;fill:#483e37;fill-opacity:1;fill-rule:nonzero;stroke:#000000;stroke-opacity:0.21276597999999999"
         id="path4171"
         sodipodi:cx="344"
         sodipodi:cy="551.36218"
         sodipodi:rx="6"
         sodipodi:ry="6"
         d="m 350,551.36218 a 6,6 0 1 1 -12,0 6,6 0 1 1 12,0 z"
         transform="translate(43,-95)" />
    </g>
  </g>
</svg>
